@startuml

hide empty members
hide object fields
hide circle

class Object
class Specified
class Agent
class Plan
class PlanExecution
class PlanDocument
class InformationObject
class SpecifiedCapability




SpecifiedCapability -u-|> Specified : "subClassOf" 
Plan -u-|>  SpecifiedCapability : "subClassOf"
PlanDocument -u-|>  InformationObject : "subClassOf"
Agent -u-|>  Object : "subClassOf"

Agent --> PlanExecution : "participatesIn"
Plan --> PlanExecution : "realizedIn"
Agent --> Plan : "hasCapabilityToPlan"
PlanExecution --> PlanDocument : "concretizes"


@enduml

